<svg width="22" height="22" viewBox="0 0 22 22" xmlns="http://www.w3.org/2000/svg"><path fill-rule="evenodd" clip-rule="evenodd" d="M8.55849 9.50016C8.51634 10.1174 8.49974 10.642 8.49974 11H7.49974C7.49974 10.6367 7.51569 10.1143 7.55624 9.50016H6.62999C6.30714 9.535 6.16795 9.59448 6.07917 9.66487C5.98499 9.73955 5.88093 9.87918 5.745 10.2195L3.55131 18.7445C3.50108 18.9594 3.47532 19.1197 3.5291 19.2317C3.54796 19.271 3.67043 19.5002 4.48102 19.5002H17.2186C17.74 19.5002 18.1247 19.4346 18.3347 19.3083C18.4232 19.255 18.4608 19.2028 18.4797 19.1497C18.5007 19.0904 18.5182 18.9727 18.4617 18.7589L15.9944 10.236C15.8426 9.89522 15.7299 9.74389 15.6249 9.66094C15.5302 9.5862 15.389 9.52587 15.076 9.50016H14.4432C14.4838 10.1143 14.4997 10.6366 14.4997 10.9999H13.4997C13.4997 10.6419 13.4831 10.1174 13.441 9.50016H8.55849ZM8.64339 8.50016H13.3561C13.2704 7.65661 13.14 6.73094 12.9488 5.85671C12.7341 4.87532 12.4506 3.99679 12.0906 3.37555C11.7236 2.74241 11.3551 2.49984 10.9997 2.49984C10.6444 2.49984 10.2758 2.74242 9.90891 3.37557C9.54887 3.99682 9.26537 4.87536 9.05069 5.85675C8.85946 6.73097 8.72909 7.65662 8.64339 8.50016ZM14.3611 8.50016H15.1147L15.1337 8.50161C15.5523 8.53351 15.9256 8.62431 16.2445 8.87608C16.5519 9.11873 16.7484 9.46501 16.9233 9.86398L16.9365 9.89408L19.4267 18.4959C19.5199 18.8446 19.53 19.1802 19.422 19.4843C19.3117 19.795 19.0982 20.0159 18.8504 20.1651C18.3877 20.4435 17.7587 20.5002 17.2186 20.5002H4.48102C3.52289 20.5002 2.89536 20.2224 2.62757 19.6644C2.40875 19.2085 2.52895 18.7161 2.57191 18.5401C2.57459 18.5291 2.57697 18.5194 2.57894 18.511L2.58139 18.5005L4.79193 9.91057L4.80305 9.88221C4.9625 9.47541 5.14908 9.12613 5.45789 8.88129C5.7724 8.63192 6.14581 8.54398 6.55361 8.5027L6.57872 8.50016H7.63841C7.72727 7.59615 7.86591 6.59339 8.07379 5.64306C8.29661 4.62442 8.60686 3.62793 9.0437 2.87415C9.47364 2.13228 10.1051 1.49984 10.9997 1.49984C11.8944 1.49983 12.5258 2.13226 12.9558 2.87413C13.3926 3.6279 13.7029 4.62439 13.9257 5.64302C14.1336 6.59337 14.2722 7.59614 14.3611 8.50016Z"/></svg>