<svg width="22" height="22" viewBox="0 0 22 22" xmlns="http://www.w3.org/2000/svg"><path fill-rule="evenodd" clip-rule="evenodd" d="M11.9134 1.95906C11.561 1.16858 10.439 1.16858 10.0866 1.95906L7.9197 6.82035C7.77438 7.14638 7.46628 7.37022 7.1113 7.40769L1.81833 7.96633C0.957646 8.05717 0.610924 9.12427 1.25384 9.70366L5.20758 13.2667C5.47274 13.5057 5.59042 13.8679 5.51636 14.2171L4.41204 19.4236C4.23247 20.2702 5.1402 20.9297 5.88991 20.4973L10.5004 17.8382C10.8096 17.6598 11.1904 17.6598 11.4996 17.8382L16.1101 20.4973C16.8598 20.9297 17.7675 20.2702 17.5879 19.4236L16.4836 14.2171C16.4096 13.8679 16.5273 13.5057 16.7924 13.2667L20.7462 9.70366C21.3891 9.12427 21.0423 8.05717 20.1817 7.96633L14.8887 7.40769C14.5337 7.37022 14.2256 7.14638 14.0803 6.82034L11.9134 1.95906Z"/></svg>