<svg width="22" height="22" viewBox="0 0 22 22" xmlns="http://www.w3.org/2000/svg"><path fill-rule="evenodd" clip-rule="evenodd" d="M13.1669 7.22746L11 2.36618L8.83308 7.22746C8.54243 7.87952 7.92623 8.32721 7.21627 8.40214L1.9233 8.96079L5.87704 12.5239C6.40737 13.0018 6.64273 13.7262 6.49461 14.4245L5.39029 19.6311L10.0008 16.9719C10.6192 16.6152 11.3808 16.6152 11.9992 16.9719L16.6097 19.6311L15.5054 14.4245C15.3573 13.7262 15.5926 13.0018 16.123 12.5239L20.0767 8.96079L14.7837 8.40214C14.0738 8.32721 13.4576 7.87952 13.1669 7.22746ZM11.9134 1.95904C11.561 1.16856 10.439 1.16856 10.0866 1.95904L7.91971 6.82033C7.77439 7.14636 7.46629 7.3702 7.11131 7.40767L1.81834 7.96631C0.957656 8.05715 0.610934 9.12425 1.25385 9.70364L5.20759 13.2667C5.47275 13.5057 5.59043 13.8679 5.51637 14.2171L4.41205 19.4236C4.23248 20.2702 5.14021 20.9297 5.88992 20.4973L10.5004 17.8382C10.8096 17.6598 11.1904 17.6598 11.4996 17.8382L16.1101 20.4973C16.8598 20.9297 17.7675 20.2702 17.5879 19.4236L16.4836 14.2171C16.4096 13.8679 16.5273 13.5057 16.7924 13.2667L20.7462 9.70364C21.3891 9.12425 21.0423 8.05715 20.1817 7.96631L14.8887 7.40767C14.5337 7.3702 14.2256 7.14636 14.0803 6.82032L11.9134 1.95904Z"/></svg>