<svg width="22" height="22" viewBox="0 0 22 22" xmlns="http://www.w3.org/2000/svg"><path fill-rule="evenodd" clip-rule="evenodd" d="M9.52576 3.9491C6.44255 3.9491 3.94937 6.42841 3.94937 9.4791C3.94937 12.5298 6.44255 15.0091 9.52576 15.0091C11.0465 15.0091 12.4237 14.4061 13.4297 13.4279C14.4628 12.4233 15.1021 11.0253 15.1021 9.4791C15.1021 6.42841 12.609 3.9491 9.52576 3.9491ZM3 9.4791C3 5.89721 5.92513 2.99973 9.52576 2.99973C13.1264 2.99973 16.0515 5.89721 16.0515 9.4791C16.0515 11.1203 15.4365 12.6191 14.4244 13.7601L19 18.3284L18.3292 19.0003L13.7444 14.4227C12.6068 15.3806 11.1336 15.9585 9.52576 15.9585C5.92513 15.9585 3 13.061 3 9.4791Z"/></svg>