<svg width="32" height="36" viewBox="0 0 32 36" fill="none" xmlns="http://www.w3.org/2000/svg">
<path fill-rule="evenodd" clip-rule="evenodd" d="M10.8335 14.6115C10.7276 16.0144 10.687 17.2112 10.687 18.0001H9.687C9.687 17.205 9.7268 16.0113 9.8307 14.6115H7.50843C6.8333 14.6823 6.45302 14.8125 6.1754 15.0334C5.89218 15.2588 5.64987 15.6305 5.37209 16.3353L1.11307 32.9454C1.02264 33.3325 0.91462 33.8171 1.1029 34.2108C1.25652 34.532 1.7307 35 3.36953 35H28.0486C29.0674 35 29.927 34.8768 30.452 34.5596C30.698 34.4111 30.8537 34.23 30.9334 34.0048C31.0152 33.7738 31.0362 33.4412 30.9087 32.9599L26.1179 16.3518C25.8088 15.6498 25.5492 15.2619 25.2505 15.0252C24.962 14.7966 24.579 14.6641 23.916 14.6115H22.1683C22.2722 16.0112 22.312 17.2049 22.312 17.9999H21.312C21.312 17.211 21.2714 16.0143 21.1655 14.6115H10.8335ZM10.9174 13.6115H21.0816C20.9163 11.8211 20.648 9.7992 20.2336 7.89807C19.8139 5.97218 19.2519 4.20813 18.5182 2.93751C17.7773 1.65457 16.9399 1 15.9995 1C15.0591 1 14.2217 1.65459 13.4809 2.93755C12.7471 4.20818 12.1852 5.97224 11.7654 7.89815C11.351 9.7993 11.0828 11.8211 10.9174 13.6115ZM22.0858 13.6115H23.9545L23.9736 13.613C24.7414 13.6717 25.3578 13.8344 25.8715 14.2414C26.3734 14.639 26.7163 15.2233 27.0473 15.9812L27.0604 16.0113L31.8738 32.6976C32.0378 33.3131 32.0444 33.8629 31.8761 34.3385C31.7055 34.8206 31.3747 35.1706 30.969 35.4156C30.1908 35.8857 29.0864 36 28.0486 36H3.36953C1.58149 36 0.60253 35.4823 0.20077 34.6423C-0.146744 33.9156 0.044829 33.1136 0.128112 32.765C0.132604 32.7462 0.13678 32.7287 0.140541 32.7126L0.14297 32.7022L4.41861 16.0277L4.42966 15.9994C4.72999 15.2305 5.05405 14.6477 5.55276 14.2509C6.05741 13.8494 6.67353 13.6911 7.43219 13.6141L7.45739 13.6115H9.9133C10.0811 11.7628 10.3572 9.6634 10.7884 7.68519C11.2162 5.72221 11.8047 3.84044 12.6149 2.43747C13.418 1.04681 14.5181 7.00004e-06 15.9995 0C17.481 -6.99996e-06 18.5811 1.04678 19.3842 2.43743C20.1943 3.84039 20.7828 5.72214 21.2107 7.6851C21.6419 9.6634 21.9179 11.7628 22.0858 13.6115Z" fill="#585858"/>
</svg>
