<svg width="128" height="26" fill="none" xmlns="http://www.w3.org/2000/svg"><g clip-path="url(#a)" fill="#585858"><path d="M14.826 8.839c-.277-.032-.358-.05-.587-.517l-3.094-6.274c-1.027-2.115-3.88-1.83-4.513 0L0 25.334h3.73c1.695-5.46 3.585-11.502 5.28-16.961.13-.466.847-.45 1.042 0 1.205 2.78 2.182 4.562 2.182 4.562 1.207 2.263 3.96 2.263 5.165 0 0 0 .977-1.782 2.184-4.562.196-.45.913-.466 1.043 0 1.694 5.46 3.584 11.502 5.279 16.961h3.73L23.007 2.048c-.636-1.83-3.488-2.115-4.512 0l-3.098 6.274c-.229.466-.31.482-.586.517h.016ZM41.905 3.763c5.034 0 8.619 4.027 8.619 9.337 0 5.294-3.585 8.988-8.619 8.988s-8.767-3.697-8.767-8.988c0-5.292 3.749-9.337 8.767-9.337ZM41.89 0c-6.892 0-12.432 5.76-12.432 12.967 0 7.19 5.524 12.884 12.432 12.884 6.909 0 12.318-5.675 12.318-12.884C54.207 5.742 48.797 0 41.89 0ZM53.148 25.249 63.185 3.262c1.63-4.077 7.054-4.096 9.025.25.897 1.963 3.358 6.376 6.241 12.701 2.281 4.977-.75 9.023-6.126 9.023-2.657 0-13.801.016-13.801.016l1.514-3.33c7.185 0 9.696.017 12.287.017 2.036 0 3.715-2.346 2.852-4.23-1.353-2.96-3.749-7.291-5.1-10.287-.862-1.899-4.074-1.93-4.838 0l-8.146 17.827h-3.945ZM89.729 11.835h-4.97c.554-4.81 3.29-7.84 8.033-7.923 3.73-.067 6.207 1.699 7.234 4.578 1.043 3.313-.977 3.345-1.679 3.345H89.73Zm8.928 7.108s-1.402 3.677-5.964 3.677c-4.01 0-7.315-2.697-7.92-7.44 0 0 9.093-.032 14.86-.032 3.534 0 4.577-3.497 4.382-5.343-.245-2.231-1.043-4.311-2.803-6.191C98.949 1.182 95.92 0 92.792.082c-3.21.083-5.785 1.399-8.115 3.529-2.331 2.147-3.681 6.141-3.765 9.438 0 3.196.881 6.458 3.048 8.922 2.25 2.546 5.214 4.077 8.832 4.029 5.524-.05 8.227-2.362 9.94-7.057h-4.075ZM111.656 6.873c-.832 4.594-.686 3.513-1.027 5.41h7.675c5.378 0 5.378-7.99 0-7.99h-4.205c-1.627.003-2.117.783-2.443 2.58Zm6.648-6.24c10.216 0 9.27 12.933 3.324 14.448l6.371 10.301h-4.448l-5.769-9.438h-7.82l-1.875 9.438h-3.649l3.959-20.54c.407-2.965 1.89-4.21 5.295-4.21h4.612v.002Z"/></g><defs><clipPath id="a"><path fill="#fff" d="M0 0h128v26H0z"/></clipPath></defs></svg>