<svg width="0" height="0" class="hidden">
  <symbol xmlns="http://www.w3.org/2000/svg" viewBox="0 0 22 22" id="favorite">
    <path fill-rule="evenodd" clip-rule="evenodd" d="M13.1669 7.22746L11 2.36618L8.83308 7.22746C8.54243 7.87952 7.92623 8.32721 7.21627 8.40214L1.9233 8.96079L5.87704 12.5239C6.40737 13.0018 6.64273 13.7262 6.49461 14.4245L5.39029 19.6311L10.0008 16.9719C10.6192 16.6152 11.3808 16.6152 11.9992 16.9719L16.6097 19.6311L15.5054 14.4245C15.3573 13.7262 15.5926 13.0018 16.123 12.5239L20.0767 8.96079L14.7837 8.40214C14.0738 8.32721 13.4576 7.87952 13.1669 7.22746ZM11.9134 1.95904C11.561 1.16856 10.439 1.16856 10.0866 1.95904L7.91971 6.82033C7.77439 7.14636 7.46629 7.3702 7.11131 7.40767L1.81834 7.96631C0.957656 8.05715 0.610934 9.12425 1.25385 9.70364L5.20759 13.2667C5.47275 13.5057 5.59043 13.8679 5.51637 14.2171L4.41205 19.4236C4.23248 20.2702 5.14021 20.9297 5.88992 20.4973L10.5004 17.8382C10.8096 17.6598 11.1904 17.6598 11.4996 17.8382L16.1101 20.4973C16.8598 20.9297 17.7675 20.2702 17.5879 19.4236L16.4836 14.2171C16.4096 13.8679 16.5273 13.5057 16.7924 13.2667L20.7462 9.70364C21.3891 9.12425 21.0423 8.05715 20.1817 7.96631L14.8887 7.40767C14.5337 7.3702 14.2256 7.14636 14.0803 6.82032L11.9134 1.95904Z"></path>
  </symbol>
  <symbol xmlns="http://www.w3.org/2000/svg" viewBox="0 0 22 22" id="favorite-fill">
    <path fill-rule="evenodd" clip-rule="evenodd" d="M11.9134 1.95906C11.561 1.16858 10.439 1.16858 10.0866 1.95906L7.9197 6.82035C7.77438 7.14638 7.46628 7.37022 7.1113 7.40769L1.81833 7.96633C0.957646 8.05717 0.610924 9.12427 1.25384 9.70366L5.20758 13.2667C5.47274 13.5057 5.59042 13.8679 5.51636 14.2171L4.41204 19.4236C4.23247 20.2702 5.1402 20.9297 5.88991 20.4973L10.5004 17.8382C10.8096 17.6598 11.1904 17.6598 11.4996 17.8382L16.1101 20.4973C16.8598 20.9297 17.7675 20.2702 17.5879 19.4236L16.4836 14.2171C16.4096 13.8679 16.5273 13.5057 16.7924 13.2667L20.7462 9.70366C21.3891 9.12427 21.0423 8.05717 20.1817 7.96633L14.8887 7.40769C14.5337 7.37022 14.2256 7.14638 14.0803 6.82034L11.9134 1.95906Z"></path>
  </symbol>
  <symbol xmlns="http://www.w3.org/2000/svg" viewBox="0 0 22 22" id="search">
    <path fill-rule="evenodd" clip-rule="evenodd" d="M9.52576 3.9491C6.44255 3.9491 3.94937 6.42841 3.94937 9.4791C3.94937 12.5298 6.44255 15.0091 9.52576 15.0091C11.0465 15.0091 12.4237 14.4061 13.4297 13.4279C14.4628 12.4233 15.1021 11.0253 15.1021 9.4791C15.1021 6.42841 12.609 3.9491 9.52576 3.9491ZM3 9.4791C3 5.89721 5.92513 2.99973 9.52576 2.99973C13.1264 2.99973 16.0515 5.89721 16.0515 9.4791C16.0515 11.1203 15.4365 12.6191 14.4244 13.7601L19 18.3284L18.3292 19.0003L13.7444 14.4227C12.6068 15.3806 11.1336 15.9585 9.52576 15.9585C5.92513 15.9585 3 13.061 3 9.4791Z"></path>
  </symbol>
  <symbol xmlns="http://www.w3.org/2000/svg" viewBox="0 0 10 10" id="arrow-down">
    <path fill-rule="evenodd" clip-rule="evenodd" d="M0.646484 3.35353L1.35359 2.64642L5.00004 6.29287L8.64648 2.64642L9.35359 3.35353L5.00004 7.70708L0.646484 3.35353Z"></path>
  </symbol>
  <symbol xmlns="http://www.w3.org/2000/svg" viewBox="0 0 22 22" id="basket">
    <path fill-rule="evenodd" clip-rule="evenodd" d="M8.55849 9.50016C8.51634 10.1174 8.49974 10.642 8.49974 11H7.49974C7.49974 10.6367 7.51569 10.1143 7.55624 9.50016H6.62999C6.30714 9.535 6.16795 9.59448 6.07917 9.66487C5.98499 9.73955 5.88093 9.87918 5.745 10.2195L3.55131 18.7445C3.50108 18.9594 3.47532 19.1197 3.5291 19.2317C3.54796 19.271 3.67043 19.5002 4.48102 19.5002H17.2186C17.74 19.5002 18.1247 19.4346 18.3347 19.3083C18.4232 19.255 18.4608 19.2028 18.4797 19.1497C18.5007 19.0904 18.5182 18.9727 18.4617 18.7589L15.9944 10.236C15.8426 9.89522 15.7299 9.74389 15.6249 9.66094C15.5302 9.5862 15.389 9.52587 15.076 9.50016H14.4432C14.4838 10.1143 14.4997 10.6366 14.4997 10.9999H13.4997C13.4997 10.6419 13.4831 10.1174 13.441 9.50016H8.55849ZM8.64339 8.50016H13.3561C13.2704 7.65661 13.14 6.73094 12.9488 5.85671C12.7341 4.87532 12.4506 3.99679 12.0906 3.37555C11.7236 2.74241 11.3551 2.49984 10.9997 2.49984C10.6444 2.49984 10.2758 2.74242 9.90891 3.37557C9.54887 3.99682 9.26537 4.87536 9.05069 5.85675C8.85946 6.73097 8.72909 7.65662 8.64339 8.50016ZM14.3611 8.50016H15.1147L15.1337 8.50161C15.5523 8.53351 15.9256 8.62431 16.2445 8.87608C16.5519 9.11873 16.7484 9.46501 16.9233 9.86398L16.9365 9.89408L19.4267 18.4959C19.5199 18.8446 19.53 19.1802 19.422 19.4843C19.3117 19.795 19.0982 20.0159 18.8504 20.1651C18.3877 20.4435 17.7587 20.5002 17.2186 20.5002H4.48102C3.52289 20.5002 2.89536 20.2224 2.62757 19.6644C2.40875 19.2085 2.52895 18.7161 2.57191 18.5401C2.57459 18.5291 2.57697 18.5194 2.57894 18.511L2.58139 18.5005L4.79193 9.91057L4.80305 9.88221C4.9625 9.47541 5.14908 9.12613 5.45789 8.88129C5.7724 8.63192 6.14581 8.54398 6.55361 8.5027L6.57872 8.50016H7.63841C7.72727 7.59615 7.86591 6.59339 8.07379 5.64306C8.29661 4.62442 8.60686 3.62793 9.0437 2.87415C9.47364 2.13228 10.1051 1.49984 10.9997 1.49984C11.8944 1.49983 12.5258 2.13226 12.9558 2.87413C13.3926 3.6279 13.7029 4.62439 13.9257 5.64302C14.1336 6.59337 14.2722 7.59614 14.3611 8.50016Z"></path>
  </symbol>
  <symbol xmlns="http://www.w3.org/2000/svg" viewBox="0 0 10 10" id="close">
    <path fill-rule="evenodd" clip-rule="evenodd" d="M8.88909 1.81802L1.81802 8.88909L1.11091 8.18198L8.18198 1.11091L8.88909 1.81802Z"></path>
    <path fill-rule="evenodd" clip-rule="evenodd" d="M8.18198 8.88909L1.11091 1.81802L1.81802 1.11091L8.88909 8.18198L8.18198 8.88909Z"></path>
  </symbol>
</svg>