<svg width="22" height="20" viewBox="0 0 22 20" fill="none" xmlns="http://www.w3.org/2000/svg">
<path d="M10.5433 1.25263C10.7195 0.857382 11.2805 0.857382 11.4567 1.25263L13.6236 6.11391C13.8416 6.60295 14.3037 6.93872 14.8362 6.99492L20.1292 7.55356C20.5595 7.59898 20.7329 8.13253 20.4114 8.42223L16.4577 11.9853C16.0599 12.3438 15.8834 12.887 15.9945 13.4108L17.0988 18.6174C17.1886 19.0407 16.7348 19.3704 16.3599 19.1542L11.7494 16.495C11.2856 16.2275 10.7144 16.2275 10.2506 16.495L5.6401 19.1542C5.26525 19.3704 4.81139 19.0407 4.90117 18.6174L6.00549 13.4108C6.11658 12.887 5.94006 12.3438 5.54231 11.9853L1.58857 8.42223C1.26712 8.13253 1.44048 7.59898 1.87082 7.55356L7.16379 6.99492C7.69626 6.93872 8.15841 6.60295 8.3764 6.11391L10.5433 1.25263Z" fill="#585858" stroke="#585858"/>
</svg>
